<svg xmlns="http://www.w3.org/2000/svg" xmlns:xlink="http://www.w3.org/1999/xlink" width="500" zoomAndPan="magnify" viewBox="0 0 375 374.999991" height="500" preserveAspectRatio="xMidYMid meet" version="1.0"><defs><g/><clipPath id="b4f24df5eb"><path d="M 120.90625 64 L 254 64 L 254 218 L 120.90625 218 Z M 120.90625 64 " clip-rule="nonzero"/></clipPath></defs><path fill="#ff3131" d="M 187.382812 142.558594 L 125.113281 178.277344 L 187.382812 214.109375 L 249.652344 178.277344 Z M 187.382812 142.558594 " fill-opacity="1" fill-rule="nonzero"/><g clip-path="url(#b4f24df5eb)"><path fill="#000000" d="M 253.152344 102.304688 L 188.078125 64.863281 C 187.640625 64.617188 187.113281 64.617188 186.675781 64.863281 L 121.601562 102.304688 C 121.164062 102.550781 120.90625 103.019531 120.90625 103.511719 L 120.90625 178.277344 C 120.90625 178.769531 121.164062 179.238281 121.601562 179.484375 L 186.675781 216.925781 C 186.898438 217.050781 187.136719 217.117188 187.371094 217.117188 C 187.605469 217.117188 187.855469 217.058594 188.066406 216.925781 L 253.140625 179.484375 C 253.578125 179.238281 253.835938 178.769531 253.835938 178.277344 L 253.835938 103.511719 C 253.859375 103.019531 253.589844 102.550781 253.152344 102.304688 Z M 251.054688 175.863281 L 188.785156 140.144531 L 188.785156 68.496094 L 251.054688 104.324219 Z M 187.382812 214.109375 L 125.125 178.289062 L 187.382812 142.570312 L 249.640625 178.289062 Z M 187.382812 214.109375 " fill-opacity="1" fill-rule="nonzero"/></g><g fill="#000000" fill-opacity="1"><g transform="translate(79.071774, 269.08848)"><g><path d="M 3.15625 0 L 3.15625 -33.21875 L 12.34375 -33.21875 L 23.515625 -13.296875 L 23.515625 -33.21875 L 31.359375 -33.21875 L 31.359375 0 L 23.515625 0 L 12.625 -19.46875 L 11 -19.46875 L 11 0 Z M 3.15625 0 "/></g></g></g><g fill="#000000" fill-opacity="1"><g transform="translate(118.181265, 269.08848)"><g><path d="M 3.15625 0 L 3.15625 -33.21875 L 28.390625 -33.21875 L 28.390625 -26.359375 L 11.578125 -26.359375 L 11.578125 -20.234375 L 26.71875 -20.234375 L 26.71875 -13.875 L 11.578125 -13.875 L 11.578125 -6.84375 L 28.390625 -6.84375 L 28.390625 0 Z M 3.15625 0 "/></g></g></g><g fill="#000000" fill-opacity="1"><g transform="translate(153.415943, 269.08848)"><g><path d="M 7.03125 0 L 0 -33.21875 L 9.6875 -33.21875 L 13.25 -6.359375 L 14.828125 -6.359375 L 18.4375 -33.21875 L 27.078125 -33.21875 L 30.6875 -6.359375 L 32.265625 -6.359375 L 35.828125 -33.21875 L 45.515625 -33.21875 L 38.484375 0 L 25.09375 0 L 22.75 -15.328125 L 20.40625 0 Z M 7.03125 0 "/></g></g></g><g fill="#000000" fill-opacity="1"><g transform="translate(203.519091, 269.08848)"><g><path d="M 3.15625 0 L 3.15625 -33.21875 L 25.328125 -33.21875 L 30.328125 -28.203125 L 30.328125 -20.234375 L 28.078125 -17.9375 L 31.640625 -14.59375 L 31.640625 -5 L 26.625 0 Z M 11.578125 -20.328125 L 20.6875 -20.328125 L 22.265625 -21.90625 L 22.265625 -25.234375 L 20.6875 -26.8125 L 11.578125 -26.8125 Z M 11.578125 -6.40625 L 21.625 -6.40625 L 23.203125 -7.96875 L 23.203125 -12.890625 L 21.625 -14.46875 L 11.578125 -14.46875 Z M 11.578125 -6.40625 "/></g></g></g><g fill="#000000" fill-opacity="1"><g transform="translate(241.772523, 269.08848)"><g><path d="M 1.796875 0 L 1.796875 -6.359375 L 5.5 -6.359375 L 5.40625 -26.859375 L 1.796875 -26.859375 L 1.796875 -33.21875 L 17.125 -33.21875 L 17.125 -26.859375 L 13.46875 -26.859375 L 13.390625 -6.359375 L 17.125 -6.359375 L 17.125 0 Z M 1.796875 0 "/></g></g></g><g fill="#000000" fill-opacity="1"><g transform="translate(265.292661, 269.08848)"><g><path d="M 3.15625 0 L 3.15625 -33.21875 L 28.390625 -33.21875 L 28.390625 -26.359375 L 11.578125 -26.359375 L 11.578125 -20.234375 L 26.71875 -20.234375 L 26.71875 -13.875 L 11.578125 -13.875 L 11.578125 -6.84375 L 28.390625 -6.84375 L 28.390625 0 Z M 3.15625 0 "/></g></g></g><g fill="#000000" fill-opacity="1"><g transform="translate(67.433296, 305.934251)"><g><path d="M 3.75 0 L 1.171875 -2.59375 L 1.171875 -14.578125 L 3.75 -17.171875 L 13.34375 -17.171875 L 15.9375 -14.578125 L 15.9375 -11.421875 L 11.6875 -11.4375 L 11.6875 -13.046875 L 10.859375 -13.859375 L 6.359375 -13.859375 L 5.515625 -13.046875 L 5.515625 -4.140625 L 6.359375 -3.3125 L 10.015625 -3.3125 L 12.25 -5.28125 L 12.25 -5.890625 L 9.109375 -5.890625 L 9.109375 -9.21875 L 16.1875 -9.21875 L 16.1875 0 L 12.515625 0 L 12.515625 -1.53125 L 10.78125 0 Z M 3.75 0 "/></g></g></g><g fill="#000000" fill-opacity="1"><g transform="translate(88.859968, 305.934251)"><g><path d="M 0 0 L 5.03125 -17.171875 L 12.109375 -17.171875 L 17.140625 0 L 12.53125 0 L 11.671875 -3.421875 L 5.46875 -3.421875 L 4.609375 0 Z M 6.34375 -6.78125 L 10.8125 -6.78125 L 9 -13.890625 L 8.15625 -13.890625 Z M 6.34375 -6.78125 "/></g></g></g><g fill="#000000" fill-opacity="1"><g transform="translate(108.376917, 305.934251)"><g><path d="M 1.625 0 L 1.625 -17.171875 L 5.890625 -17.171875 L 10.328125 -6.734375 L 14.75 -17.171875 L 18.984375 -17.171875 L 18.984375 0 L 14.9375 0 L 14.9375 -9.4375 L 11.34375 -0.75 L 9.296875 -0.75 L 5.6875 -9.4375 L 5.6875 0 Z M 1.625 0 "/></g></g></g><g fill="#000000" fill-opacity="1"><g transform="translate(131.363981, 305.934251)"><g><path d="M 1.625 0 L 1.625 -17.171875 L 14.671875 -17.171875 L 14.671875 -13.625 L 5.984375 -13.625 L 5.984375 -10.453125 L 13.8125 -10.453125 L 13.8125 -7.171875 L 5.984375 -7.171875 L 5.984375 -3.546875 L 14.671875 -3.546875 L 14.671875 0 Z M 1.625 0 "/></g></g></g><g fill="#000000" fill-opacity="1"><g transform="translate(149.576721, 305.934251)"><g/></g></g><g fill="#000000" fill-opacity="1"><g transform="translate(157.681886, 305.934251)"><g><path d="M 1.625 0 L 1.625 -17.171875 L 5.890625 -17.171875 L 10.328125 -6.734375 L 14.75 -17.171875 L 18.984375 -17.171875 L 18.984375 0 L 14.9375 0 L 14.9375 -9.4375 L 11.34375 -0.75 L 9.296875 -0.75 L 5.6875 -9.4375 L 5.6875 0 Z M 1.625 0 "/></g></g></g><g fill="#000000" fill-opacity="1"><g transform="translate(180.668946, 305.934251)"><g><path d="M 0 0 L 5.03125 -17.171875 L 12.109375 -17.171875 L 17.140625 0 L 12.53125 0 L 11.671875 -3.421875 L 5.46875 -3.421875 L 4.609375 0 Z M 6.34375 -6.78125 L 10.8125 -6.78125 L 9 -13.890625 L 8.15625 -13.890625 Z M 6.34375 -6.78125 "/></g></g></g><g fill="#000000" fill-opacity="1"><g transform="translate(200.1859, 305.934251)"><g><path d="M 3.75 0 L 1.171875 -2.59375 L 1.171875 -14.578125 L 3.75 -17.171875 L 13.34375 -17.171875 L 15.9375 -14.578125 L 15.9375 -11.421875 L 11.6875 -11.4375 L 11.6875 -13.046875 L 10.859375 -13.859375 L 6.359375 -13.859375 L 5.515625 -13.046875 L 5.515625 -4.140625 L 6.359375 -3.3125 L 10.015625 -3.3125 L 12.25 -5.28125 L 12.25 -5.890625 L 9.109375 -5.890625 L 9.109375 -9.21875 L 16.1875 -9.21875 L 16.1875 0 L 12.515625 0 L 12.515625 -1.53125 L 10.78125 0 Z M 3.75 0 "/></g></g></g><g fill="#000000" fill-opacity="1"><g transform="translate(221.61257, 305.934251)"><g><path d="M 0 0 L 5.03125 -17.171875 L 12.109375 -17.171875 L 17.140625 0 L 12.53125 0 L 11.671875 -3.421875 L 5.46875 -3.421875 L 4.609375 0 Z M 6.34375 -6.78125 L 10.8125 -6.78125 L 9 -13.890625 L 8.15625 -13.890625 Z M 6.34375 -6.78125 "/></g></g></g><g fill="#000000" fill-opacity="1"><g transform="translate(241.129517, 305.934251)"><g><path d="M 1.046875 0 L 1.046875 -3.65625 L 8.96875 -12.8125 L 8.96875 -13.625 L 1.609375 -13.625 L 1.609375 -17.171875 L 14.796875 -17.171875 L 14.796875 -13.515625 L 6.890625 -4.359375 L 6.890625 -3.546875 L 14.796875 -3.546875 L 14.796875 0 Z M 1.046875 0 "/></g></g></g><g fill="#000000" fill-opacity="1"><g transform="translate(259.342257, 305.934251)"><g><path d="M 0.9375 0 L 0.9375 -3.28125 L 2.84375 -3.28125 L 2.796875 -13.890625 L 0.9375 -13.890625 L 0.9375 -17.171875 L 8.859375 -17.171875 L 8.859375 -13.890625 L 6.96875 -13.890625 L 6.921875 -3.28125 L 8.859375 -3.28125 L 8.859375 0 Z M 0.9375 0 "/></g></g></g><g fill="#000000" fill-opacity="1"><g transform="translate(271.499774, 305.934251)"><g><path d="M 1.625 0 L 1.625 -17.171875 L 6.390625 -17.171875 L 12.15625 -6.875 L 12.15625 -17.171875 L 16.21875 -17.171875 L 16.21875 0 L 12.15625 0 L 6.515625 -10.0625 L 5.6875 -10.0625 L 5.6875 0 Z M 1.625 0 "/></g></g></g><g fill="#000000" fill-opacity="1"><g transform="translate(291.7154, 305.934251)"><g><path d="M 1.625 0 L 1.625 -17.171875 L 14.671875 -17.171875 L 14.671875 -13.625 L 5.984375 -13.625 L 5.984375 -10.453125 L 13.8125 -10.453125 L 13.8125 -7.171875 L 5.984375 -7.171875 L 5.984375 -3.546875 L 14.671875 -3.546875 L 14.671875 0 Z M 1.625 0 "/></g></g></g></svg>