<svg xmlns="http://www.w3.org/2000/svg" xmlns:xlink="http://www.w3.org/1999/xlink" width="500" zoomAndPan="magnify" viewBox="0 0 375 374.999991" height="500" preserveAspectRatio="xMidYMid meet" version="1.0"><defs><g/><clipPath id="ade7605d80"><path d="M 155 118.441406 L 233.40625 118.441406 L 233.40625 217 L 155 217 Z M 155 118.441406 " clip-rule="nonzero"/></clipPath><clipPath id="83a46929fe"><path d="M 141.90625 140 L 195 140 L 195 224.191406 L 141.90625 224.191406 Z M 141.90625 140 " clip-rule="nonzero"/></clipPath></defs><g clip-path="url(#ade7605d80)"><path fill="#ffde59" d="M 187.59375 118.472656 L 233.410156 145.191406 L 233.410156 197.574219 L 220.21875 205.050781 L 220.21875 160.578125 L 213.960938 163.621094 L 213.960938 208.601562 L 200.765625 216.382812 L 200.765625 164.300781 L 155.101562 137.921875 L 168.628906 129.464844 L 207.191406 152.464844 L 213.285156 148.742188 L 175.058594 126.421875 Z M 187.59375 118.472656 " fill-opacity="1" fill-rule="nonzero"/></g><g clip-path="url(#83a46929fe)"><path fill="#8c52ff" d="M 148.671875 140.964844 L 141.90625 145.023438 L 141.90625 175.101562 L 181.144531 197.78125 L 181.144531 204.84375 L 141.90625 182.730469 L 141.90625 197.738281 L 187.574219 224.160156 L 194.253906 220.378906 L 194.253906 190.136719 L 155.101562 167.429688 L 155.101562 160.917969 L 194.253906 182.5625 L 194.253906 167.429688 Z M 148.671875 140.964844 " fill-opacity="1" fill-rule="nonzero"/></g><g fill="#ffffff" fill-opacity="1"><g transform="translate(104.98535, 252.260681)"><g><path d="M 4.25 0.25 C 3.050781 0.25 2.453125 -0.367188 2.453125 -1.609375 L 2.453125 -20.25 C 2.453125 -21.488281 3.070312 -22.109375 4.3125 -22.109375 C 4.820312 -22.109375 5.226562 -22.007812 5.53125 -21.8125 C 5.832031 -21.613281 6.109375 -21.273438 6.359375 -20.796875 L 13.515625 -7.5625 L 20.671875 -20.796875 C 20.921875 -21.273438 21.191406 -21.613281 21.484375 -21.8125 C 21.773438 -22.007812 22.175781 -22.109375 22.6875 -22.109375 C 23.882812 -22.109375 24.484375 -21.488281 24.484375 -20.25 L 24.484375 -1.609375 C 24.484375 -0.367188 23.882812 0.25 22.6875 0.25 C 21.488281 0.25 20.890625 -0.367188 20.890625 -1.609375 L 20.890625 -14.71875 L 15.0625 -4.09375 C 14.851562 -3.738281 14.632812 -3.476562 14.40625 -3.3125 C 14.1875 -3.144531 13.878906 -3.0625 13.484375 -3.0625 C 13.085938 -3.0625 12.765625 -3.148438 12.515625 -3.328125 C 12.273438 -3.503906 12.0625 -3.757812 11.875 -4.09375 L 6.046875 -14.65625 L 6.046875 -1.609375 C 6.046875 -0.367188 5.445312 0.25 4.25 0.25 Z M 4.25 0.25 "/></g></g></g><g fill="#ffffff" fill-opacity="1"><g transform="translate(131.889996, 252.260681)"><g><path d="M 2.609375 0.25 C 1.878906 0.25 1.359375 0.00390625 1.046875 -0.484375 C 0.742188 -0.984375 0.753906 -1.585938 1.078125 -2.296875 L 9.265625 -20.421875 C 9.535156 -21.023438 9.859375 -21.457031 10.234375 -21.71875 C 10.617188 -21.976562 11.0625 -22.109375 11.5625 -22.109375 C 12.039062 -22.109375 12.46875 -21.976562 12.84375 -21.71875 C 13.226562 -21.457031 13.554688 -21.023438 13.828125 -20.421875 L 22.046875 -2.296875 C 22.367188 -1.566406 22.382812 -0.957031 22.09375 -0.46875 C 21.8125 0.0078125 21.316406 0.25 20.609375 0.25 C 20.035156 0.25 19.585938 0.109375 19.265625 -0.171875 C 18.941406 -0.453125 18.65625 -0.878906 18.40625 -1.453125 L 16.859375 -5.046875 L 6.203125 -5.046875 L 4.6875 -1.453125 C 4.414062 -0.859375 4.132812 -0.425781 3.84375 -0.15625 C 3.550781 0.113281 3.140625 0.25 2.609375 0.25 Z M 11.5 -17.546875 L 7.5625 -8.21875 L 15.5 -8.21875 L 11.5625 -17.546875 Z M 11.5 -17.546875 "/></g></g></g><g fill="#ffffff" fill-opacity="1"><g transform="translate(154.951122, 252.260681)"><g><path d="M 12.890625 0.3125 C 10.472656 0.3125 8.429688 -0.140625 6.765625 -1.046875 C 5.109375 -1.960938 3.84375 -3.253906 2.96875 -4.921875 C 2.101562 -6.597656 1.671875 -8.582031 1.671875 -10.875 C 1.671875 -13.195312 2.113281 -15.195312 3 -16.875 C 3.894531 -18.5625 5.175781 -19.863281 6.84375 -20.78125 C 8.519531 -21.707031 10.523438 -22.171875 12.859375 -22.171875 C 14.015625 -22.171875 15.175781 -22.03125 16.34375 -21.75 C 17.519531 -21.46875 18.625 -20.992188 19.65625 -20.328125 C 20.101562 -20.066406 20.363281 -19.710938 20.4375 -19.265625 C 20.507812 -18.816406 20.441406 -18.394531 20.234375 -18 C 20.035156 -17.613281 19.726562 -17.34375 19.3125 -17.1875 C 18.894531 -17.03125 18.441406 -17.097656 17.953125 -17.390625 C 17.160156 -17.847656 16.363281 -18.175781 15.5625 -18.375 C 14.757812 -18.582031 13.859375 -18.6875 12.859375 -18.6875 C 10.546875 -18.6875 8.796875 -18.015625 7.609375 -16.671875 C 6.421875 -15.328125 5.828125 -13.394531 5.828125 -10.875 C 5.828125 -8.332031 6.4375 -6.398438 7.65625 -5.078125 C 8.875 -3.753906 10.679688 -3.09375 13.078125 -3.09375 C 13.765625 -3.09375 14.460938 -3.148438 15.171875 -3.265625 C 15.890625 -3.378906 16.597656 -3.550781 17.296875 -3.78125 L 17.296875 -8.859375 L 13.890625 -8.859375 C 12.816406 -8.859375 12.28125 -9.359375 12.28125 -10.359375 C 12.28125 -11.328125 12.816406 -11.8125 13.890625 -11.8125 L 19 -11.8125 C 20.070312 -11.8125 20.609375 -11.273438 20.609375 -10.203125 L 20.609375 -2.671875 C 20.609375 -1.710938 20.238281 -1.101562 19.5 -0.84375 C 18.59375 -0.507812 17.546875 -0.234375 16.359375 -0.015625 C 15.179688 0.203125 14.023438 0.3125 12.890625 0.3125 Z M 12.890625 0.3125 "/></g></g></g><g fill="#ffffff" fill-opacity="1"><g transform="translate(177.764288, 252.260681)"><g><path d="M 2.609375 0.25 C 1.878906 0.25 1.359375 0.00390625 1.046875 -0.484375 C 0.742188 -0.984375 0.753906 -1.585938 1.078125 -2.296875 L 9.265625 -20.421875 C 9.535156 -21.023438 9.859375 -21.457031 10.234375 -21.71875 C 10.617188 -21.976562 11.0625 -22.109375 11.5625 -22.109375 C 12.039062 -22.109375 12.46875 -21.976562 12.84375 -21.71875 C 13.226562 -21.457031 13.554688 -21.023438 13.828125 -20.421875 L 22.046875 -2.296875 C 22.367188 -1.566406 22.382812 -0.957031 22.09375 -0.46875 C 21.8125 0.0078125 21.316406 0.25 20.609375 0.25 C 20.035156 0.25 19.585938 0.109375 19.265625 -0.171875 C 18.941406 -0.453125 18.65625 -0.878906 18.40625 -1.453125 L 16.859375 -5.046875 L 6.203125 -5.046875 L 4.6875 -1.453125 C 4.414062 -0.859375 4.132812 -0.425781 3.84375 -0.15625 C 3.550781 0.113281 3.140625 0.25 2.609375 0.25 Z M 11.5 -17.546875 L 7.5625 -8.21875 L 15.5 -8.21875 L 11.5625 -17.546875 Z M 11.5 -17.546875 "/></g></g></g><g fill="#ffffff" fill-opacity="1"><g transform="translate(200.825413, 252.260681)"><g><path d="M 3.28125 0 C 2.601562 0 2.09375 -0.175781 1.75 -0.53125 C 1.40625 -0.894531 1.257812 -1.367188 1.3125 -1.953125 C 1.363281 -2.535156 1.617188 -3.132812 2.078125 -3.75 L 12.984375 -18.53125 L 2.96875 -18.53125 C 1.789062 -18.53125 1.203125 -19.09375 1.203125 -20.21875 C 1.203125 -21.3125 1.789062 -21.859375 2.96875 -21.859375 L 15.8125 -21.859375 C 16.488281 -21.859375 17 -21.675781 17.34375 -21.3125 C 17.6875 -20.945312 17.835938 -20.476562 17.796875 -19.90625 C 17.753906 -19.34375 17.492188 -18.742188 17.015625 -18.109375 L 6.109375 -3.3125 L 16.578125 -3.3125 C 17.765625 -3.3125 18.359375 -2.765625 18.359375 -1.671875 C 18.359375 -0.554688 17.765625 0 16.578125 0 Z M 3.28125 0 "/></g></g></g><g fill="#ffffff" fill-opacity="1"><g transform="translate(219.578078, 252.260681)"><g><path d="M 4.375 0.25 C 3.050781 0.25 2.390625 -0.429688 2.390625 -1.796875 L 2.390625 -20.0625 C 2.390625 -21.425781 3.050781 -22.109375 4.375 -22.109375 C 5.695312 -22.109375 6.359375 -21.425781 6.359375 -20.0625 L 6.359375 -1.796875 C 6.359375 -0.429688 5.695312 0.25 4.375 0.25 Z M 4.375 0.25 "/></g></g></g><g fill="#ffffff" fill-opacity="1"><g transform="translate(228.318995, 252.260681)"><g><path d="M 4.25 0.25 C 3.007812 0.25 2.390625 -0.390625 2.390625 -1.671875 L 2.390625 -20.125 C 2.390625 -20.757812 2.546875 -21.25 2.859375 -21.59375 C 3.179688 -21.9375 3.601562 -22.109375 4.125 -22.109375 C 4.601562 -22.109375 4.957031 -22.019531 5.1875 -21.84375 C 5.425781 -21.664062 5.710938 -21.367188 6.046875 -20.953125 L 17.109375 -6.609375 L 17.109375 -20.21875 C 17.109375 -21.476562 17.726562 -22.109375 18.96875 -22.109375 C 20.1875 -22.109375 20.796875 -21.476562 20.796875 -20.21875 L 20.796875 -1.609375 C 20.796875 -1.035156 20.648438 -0.582031 20.359375 -0.25 C 20.078125 0.0820312 19.6875 0.25 19.1875 0.25 C 18.707031 0.25 18.328125 0.15625 18.046875 -0.03125 C 17.773438 -0.21875 17.472656 -0.519531 17.140625 -0.9375 L 6.078125 -15.3125 L 6.078125 -1.671875 C 6.078125 -0.390625 5.46875 0.25 4.25 0.25 Z M 4.25 0.25 "/></g></g></g><g fill="#ffffff" fill-opacity="1"><g transform="translate(251.504106, 252.260681)"><g><path d="M 4.5 0 C 3.09375 0 2.390625 -0.703125 2.390625 -2.109375 L 2.390625 -19.75 C 2.390625 -21.15625 3.09375 -21.859375 4.5 -21.859375 L 15.5625 -21.859375 C 16.632812 -21.859375 17.171875 -21.34375 17.171875 -20.3125 C 17.171875 -19.226562 16.632812 -18.6875 15.5625 -18.6875 L 6.203125 -18.6875 L 6.203125 -12.671875 L 14.875 -12.671875 C 15.945312 -12.671875 16.484375 -12.144531 16.484375 -11.09375 C 16.484375 -10.039062 15.945312 -9.515625 14.875 -9.515625 L 6.203125 -9.515625 L 6.203125 -3.15625 L 15.5625 -3.15625 C 16.632812 -3.15625 17.171875 -2.628906 17.171875 -1.578125 C 17.171875 -0.523438 16.632812 0 15.5625 0 Z M 4.5 0 "/></g></g></g><g fill="#ffffff" fill-opacity="1"><g transform="translate(58.077546, 275.860616)"><g><path d="M 10.96875 -6.5 C 11.101562 -6.5 11.21875 -6.453125 11.3125 -6.359375 C 11.40625 -6.273438 11.453125 -6.160156 11.453125 -6.015625 L 11.453125 -1.234375 C 11.453125 -0.929688 11.3125 -0.71875 11.03125 -0.59375 C 10.539062 -0.363281 9.941406 -0.179688 9.234375 -0.046875 C 8.535156 0.078125 7.828125 0.140625 7.109375 0.140625 C 5.867188 0.140625 4.800781 -0.113281 3.90625 -0.625 C 3.019531 -1.132812 2.335938 -1.875 1.859375 -2.84375 C 1.390625 -3.820312 1.15625 -4.992188 1.15625 -6.359375 C 1.15625 -7.691406 1.390625 -8.84375 1.859375 -9.8125 C 2.328125 -10.78125 3 -11.523438 3.875 -12.046875 C 4.75 -12.566406 5.785156 -12.828125 6.984375 -12.828125 C 7.828125 -12.828125 8.613281 -12.691406 9.34375 -12.421875 C 10.070312 -12.160156 10.671875 -11.773438 11.140625 -11.265625 C 11.296875 -11.109375 11.375 -10.9375 11.375 -10.75 C 11.375 -10.613281 11.335938 -10.5 11.265625 -10.40625 C 11.191406 -10.3125 11.101562 -10.265625 11 -10.265625 C 10.90625 -10.265625 10.773438 -10.320312 10.609375 -10.4375 C 9.960938 -10.96875 9.367188 -11.332031 8.828125 -11.53125 C 8.296875 -11.738281 7.679688 -11.84375 6.984375 -11.84375 C 5.492188 -11.84375 4.34375 -11.363281 3.53125 -10.40625 C 2.726562 -9.457031 2.328125 -8.109375 2.328125 -6.359375 C 2.328125 -4.566406 2.734375 -3.195312 3.546875 -2.25 C 4.359375 -1.300781 5.546875 -0.828125 7.109375 -0.828125 C 7.710938 -0.828125 8.300781 -0.878906 8.875 -0.984375 C 9.457031 -1.085938 9.976562 -1.234375 10.4375 -1.421875 L 10.4375 -5.5625 L 7.53125 -5.5625 C 7.351562 -5.5625 7.21875 -5.601562 7.125 -5.6875 C 7.039062 -5.769531 7 -5.882812 7 -6.03125 C 7 -6.175781 7.039062 -6.289062 7.125 -6.375 C 7.21875 -6.457031 7.351562 -6.5 7.53125 -6.5 Z M 10.96875 -6.5 "/></g></g></g><g fill="#ffffff" fill-opacity="1"><g transform="translate(75.375636, 275.860616)"><g><path d="M 12.328125 -0.59375 C 12.367188 -0.519531 12.390625 -0.445312 12.390625 -0.375 C 12.390625 -0.25 12.332031 -0.140625 12.21875 -0.046875 C 12.113281 0.046875 11.988281 0.09375 11.84375 0.09375 C 11.75 0.09375 11.65625 0.0625 11.5625 0 C 11.476562 -0.0625 11.410156 -0.144531 11.359375 -0.25 L 9.984375 -3.390625 L 3 -3.390625 L 1.625 -0.25 C 1.507812 -0.0195312 1.335938 0.09375 1.109375 0.09375 C 0.972656 0.09375 0.851562 0.046875 0.75 -0.046875 C 0.644531 -0.140625 0.59375 -0.253906 0.59375 -0.390625 C 0.59375 -0.472656 0.601562 -0.539062 0.625 -0.59375 L 5.890625 -12.40625 C 5.992188 -12.664062 6.191406 -12.796875 6.484375 -12.796875 C 6.609375 -12.796875 6.726562 -12.757812 6.84375 -12.6875 C 6.957031 -12.613281 7.039062 -12.519531 7.09375 -12.40625 Z M 3.421875 -4.359375 L 9.5625 -4.359375 L 6.5 -11.328125 Z M 3.421875 -4.359375 "/></g></g></g><g fill="#ffffff" fill-opacity="1"><g transform="translate(92.691727, 275.860616)"><g><path d="M 12.90625 -12.78125 C 13.082031 -12.78125 13.222656 -12.722656 13.328125 -12.609375 C 13.429688 -12.503906 13.484375 -12.367188 13.484375 -12.203125 L 13.484375 -0.484375 C 13.484375 -0.316406 13.429688 -0.175781 13.328125 -0.0625 C 13.234375 0.0390625 13.101562 0.09375 12.9375 0.09375 C 12.769531 0.09375 12.644531 0.0390625 12.5625 -0.0625 C 12.476562 -0.164062 12.4375 -0.304688 12.4375 -0.484375 L 12.4375 -10.46875 L 8.171875 -2.234375 C 8.023438 -1.953125 7.828125 -1.8125 7.578125 -1.8125 C 7.328125 -1.8125 7.128906 -1.953125 6.984375 -2.234375 L 2.6875 -10.40625 L 2.6875 -0.484375 C 2.6875 -0.304688 2.644531 -0.164062 2.5625 -0.0625 C 2.476562 0.0390625 2.347656 0.09375 2.171875 0.09375 C 1.992188 0.09375 1.859375 0.0390625 1.765625 -0.0625 C 1.679688 -0.164062 1.640625 -0.304688 1.640625 -0.484375 L 1.640625 -12.203125 C 1.640625 -12.367188 1.6875 -12.503906 1.78125 -12.609375 C 1.882812 -12.722656 2.03125 -12.78125 2.21875 -12.78125 C 2.425781 -12.78125 2.601562 -12.640625 2.75 -12.359375 L 7.59375 -3.078125 L 12.359375 -12.359375 C 12.503906 -12.640625 12.6875 -12.78125 12.90625 -12.78125 Z M 12.90625 -12.78125 "/></g></g></g><g fill="#ffffff" fill-opacity="1"><g transform="translate(112.167814, 275.860616)"><g><path d="M 2.234375 0 C 2.066406 0 1.925781 -0.0507812 1.8125 -0.15625 C 1.695312 -0.269531 1.640625 -0.40625 1.640625 -0.5625 L 1.640625 -12.125 C 1.640625 -12.28125 1.695312 -12.410156 1.8125 -12.515625 C 1.925781 -12.628906 2.066406 -12.6875 2.234375 -12.6875 L 9.078125 -12.6875 C 9.234375 -12.6875 9.351562 -12.644531 9.4375 -12.5625 C 9.53125 -12.476562 9.578125 -12.359375 9.578125 -12.203125 C 9.578125 -12.054688 9.53125 -11.941406 9.4375 -11.859375 C 9.351562 -11.773438 9.234375 -11.734375 9.078125 -11.734375 L 2.734375 -11.734375 L 2.734375 -6.9375 L 8.71875 -6.9375 C 8.875 -6.9375 8.992188 -6.890625 9.078125 -6.796875 C 9.171875 -6.710938 9.21875 -6.59375 9.21875 -6.4375 C 9.21875 -6.28125 9.171875 -6.160156 9.078125 -6.078125 C 8.992188 -5.992188 8.875 -5.953125 8.71875 -5.953125 L 2.734375 -5.953125 L 2.734375 -0.953125 L 9.078125 -0.953125 C 9.234375 -0.953125 9.351562 -0.910156 9.4375 -0.828125 C 9.53125 -0.753906 9.578125 -0.640625 9.578125 -0.484375 C 9.578125 -0.328125 9.53125 -0.207031 9.4375 -0.125 C 9.351562 -0.0390625 9.234375 0 9.078125 0 Z M 2.234375 0 "/></g></g></g><g fill="#ffffff" fill-opacity="1"><g transform="translate(126.945912, 275.860616)"><g/></g></g><g fill="#ffffff" fill-opacity="1"><g transform="translate(135.838028, 275.860616)"><g><path d="M 2.203125 0.09375 C 2.023438 0.09375 1.882812 0.0390625 1.78125 -0.0625 C 1.6875 -0.175781 1.640625 -0.316406 1.640625 -0.484375 L 1.640625 -12.125 C 1.640625 -12.28125 1.695312 -12.410156 1.8125 -12.515625 C 1.925781 -12.628906 2.066406 -12.6875 2.234375 -12.6875 L 8.890625 -12.6875 C 9.046875 -12.6875 9.164062 -12.644531 9.25 -12.5625 C 9.34375 -12.476562 9.390625 -12.359375 9.390625 -12.203125 C 9.390625 -12.046875 9.34375 -11.925781 9.25 -11.84375 C 9.164062 -11.769531 9.046875 -11.734375 8.890625 -11.734375 L 2.75 -11.734375 L 2.75 -6.9375 L 8.53125 -6.9375 C 8.6875 -6.9375 8.804688 -6.890625 8.890625 -6.796875 C 8.984375 -6.710938 9.03125 -6.59375 9.03125 -6.4375 C 9.03125 -6.28125 8.984375 -6.160156 8.890625 -6.078125 C 8.804688 -5.992188 8.6875 -5.953125 8.53125 -5.953125 L 2.75 -5.953125 L 2.75 -0.484375 C 2.75 -0.304688 2.703125 -0.164062 2.609375 -0.0625 C 2.515625 0.0390625 2.378906 0.09375 2.203125 0.09375 Z M 2.203125 0.09375 "/></g></g></g><g fill="#ffffff" fill-opacity="1"><g transform="translate(150.14812, 275.860616)"><g><path d="M 6.796875 0.140625 C 5.648438 0.140625 4.648438 -0.117188 3.796875 -0.640625 C 2.941406 -1.160156 2.285156 -1.910156 1.828125 -2.890625 C 1.378906 -3.867188 1.15625 -5.019531 1.15625 -6.34375 C 1.15625 -7.664062 1.378906 -8.816406 1.828125 -9.796875 C 2.285156 -10.773438 2.9375 -11.523438 3.78125 -12.046875 C 4.632812 -12.566406 5.640625 -12.828125 6.796875 -12.828125 C 7.960938 -12.828125 8.972656 -12.566406 9.828125 -12.046875 C 10.679688 -11.523438 11.332031 -10.78125 11.78125 -9.8125 C 12.238281 -8.84375 12.46875 -7.691406 12.46875 -6.359375 C 12.46875 -5.023438 12.238281 -3.867188 11.78125 -2.890625 C 11.332031 -1.910156 10.679688 -1.160156 9.828125 -0.640625 C 8.972656 -0.117188 7.960938 0.140625 6.796875 0.140625 Z M 6.796875 -0.84375 C 8.234375 -0.84375 9.347656 -1.320312 10.140625 -2.28125 C 10.929688 -3.238281 11.328125 -4.597656 11.328125 -6.359375 C 11.328125 -8.109375 10.929688 -9.457031 10.140625 -10.40625 C 9.359375 -11.363281 8.242188 -11.84375 6.796875 -11.84375 C 5.367188 -11.84375 4.257812 -11.363281 3.46875 -10.40625 C 2.6875 -9.445312 2.296875 -8.097656 2.296875 -6.359375 C 2.296875 -4.617188 2.6875 -3.265625 3.46875 -2.296875 C 4.257812 -1.328125 5.367188 -0.84375 6.796875 -0.84375 Z M 6.796875 -0.84375 "/></g></g></g><g fill="#ffffff" fill-opacity="1"><g transform="translate(168.130208, 275.860616)"><g><path d="M 11.125 -0.671875 C 11.195312 -0.554688 11.234375 -0.453125 11.234375 -0.359375 C 11.234375 -0.222656 11.179688 -0.109375 11.078125 -0.015625 C 10.972656 0.0664062 10.859375 0.109375 10.734375 0.109375 C 10.523438 0.109375 10.359375 0.0078125 10.234375 -0.1875 L 7.8125 -4.0625 C 7.46875 -4.613281 7.109375 -4.992188 6.734375 -5.203125 C 6.367188 -5.410156 5.863281 -5.515625 5.21875 -5.515625 L 2.75 -5.515625 L 2.75 -0.484375 C 2.75 -0.304688 2.695312 -0.164062 2.59375 -0.0625 C 2.5 0.0390625 2.367188 0.09375 2.203125 0.09375 C 2.023438 0.09375 1.882812 0.0390625 1.78125 -0.0625 C 1.6875 -0.164062 1.640625 -0.304688 1.640625 -0.484375 L 1.640625 -12.125 C 1.640625 -12.28125 1.695312 -12.410156 1.8125 -12.515625 C 1.925781 -12.628906 2.066406 -12.6875 2.234375 -12.6875 L 6.71875 -12.6875 C 8.050781 -12.6875 9.078125 -12.382812 9.796875 -11.78125 C 10.515625 -11.175781 10.875 -10.289062 10.875 -9.125 C 10.875 -8.101562 10.566406 -7.289062 9.953125 -6.6875 C 9.335938 -6.09375 8.472656 -5.75 7.359375 -5.65625 C 7.648438 -5.5625 7.914062 -5.398438 8.15625 -5.171875 C 8.394531 -4.953125 8.640625 -4.644531 8.890625 -4.25 Z M 6.640625 -6.46875 C 8.734375 -6.46875 9.78125 -7.359375 9.78125 -9.140625 C 9.78125 -10.015625 9.519531 -10.664062 9 -11.09375 C 8.476562 -11.519531 7.691406 -11.734375 6.640625 -11.734375 L 2.734375 -11.734375 L 2.734375 -6.46875 Z M 6.640625 -6.46875 "/></g></g></g><g fill="#ffffff" fill-opacity="1"><g transform="translate(184.762295, 275.860616)"><g/></g></g><g fill="#ffffff" fill-opacity="1"><g transform="translate(193.654411, 275.860616)"><g><path d="M 6.90625 0.140625 C 5.726562 0.140625 4.703125 -0.117188 3.828125 -0.640625 C 2.960938 -1.160156 2.300781 -1.910156 1.84375 -2.890625 C 1.382812 -3.867188 1.15625 -5.023438 1.15625 -6.359375 C 1.15625 -7.691406 1.382812 -8.84375 1.84375 -9.8125 C 2.300781 -10.78125 2.960938 -11.523438 3.828125 -12.046875 C 4.703125 -12.566406 5.726562 -12.828125 6.90625 -12.828125 C 7.71875 -12.828125 8.484375 -12.691406 9.203125 -12.421875 C 9.929688 -12.160156 10.546875 -11.773438 11.046875 -11.265625 C 11.210938 -11.109375 11.296875 -10.9375 11.296875 -10.75 C 11.296875 -10.613281 11.253906 -10.5 11.171875 -10.40625 C 11.097656 -10.3125 11.015625 -10.265625 10.921875 -10.265625 C 10.804688 -10.265625 10.671875 -10.320312 10.515625 -10.4375 C 9.867188 -10.96875 9.28125 -11.332031 8.75 -11.53125 C 8.21875 -11.738281 7.597656 -11.84375 6.890625 -11.84375 C 5.441406 -11.84375 4.316406 -11.363281 3.515625 -10.40625 C 2.722656 -9.445312 2.328125 -8.097656 2.328125 -6.359375 C 2.328125 -4.597656 2.722656 -3.238281 3.515625 -2.28125 C 4.316406 -1.320312 5.441406 -0.84375 6.890625 -0.84375 C 7.597656 -0.84375 8.21875 -0.941406 8.75 -1.140625 C 9.28125 -1.347656 9.867188 -1.71875 10.515625 -2.25 C 10.691406 -2.375 10.828125 -2.4375 10.921875 -2.4375 C 11.015625 -2.4375 11.097656 -2.382812 11.171875 -2.28125 C 11.253906 -2.1875 11.296875 -2.070312 11.296875 -1.9375 C 11.296875 -1.75 11.210938 -1.578125 11.046875 -1.421875 C 10.546875 -0.921875 9.929688 -0.535156 9.203125 -0.265625 C 8.484375 0.00390625 7.71875 0.140625 6.90625 0.140625 Z M 6.90625 0.140625 "/></g></g></g><g fill="#ffffff" fill-opacity="1"><g transform="translate(210.196501, 275.860616)"><g><path d="M 6.796875 0.140625 C 5.648438 0.140625 4.648438 -0.117188 3.796875 -0.640625 C 2.941406 -1.160156 2.285156 -1.910156 1.828125 -2.890625 C 1.378906 -3.867188 1.15625 -5.019531 1.15625 -6.34375 C 1.15625 -7.664062 1.378906 -8.816406 1.828125 -9.796875 C 2.285156 -10.773438 2.9375 -11.523438 3.78125 -12.046875 C 4.632812 -12.566406 5.640625 -12.828125 6.796875 -12.828125 C 7.960938 -12.828125 8.972656 -12.566406 9.828125 -12.046875 C 10.679688 -11.523438 11.332031 -10.78125 11.78125 -9.8125 C 12.238281 -8.84375 12.46875 -7.691406 12.46875 -6.359375 C 12.46875 -5.023438 12.238281 -3.867188 11.78125 -2.890625 C 11.332031 -1.910156 10.679688 -1.160156 9.828125 -0.640625 C 8.972656 -0.117188 7.960938 0.140625 6.796875 0.140625 Z M 6.796875 -0.84375 C 8.234375 -0.84375 9.347656 -1.320312 10.140625 -2.28125 C 10.929688 -3.238281 11.328125 -4.597656 11.328125 -6.359375 C 11.328125 -8.109375 10.929688 -9.457031 10.140625 -10.40625 C 9.359375 -11.363281 8.242188 -11.84375 6.796875 -11.84375 C 5.367188 -11.84375 4.257812 -11.363281 3.46875 -10.40625 C 2.6875 -9.445312 2.296875 -8.097656 2.296875 -6.359375 C 2.296875 -4.617188 2.6875 -3.265625 3.46875 -2.296875 C 4.257812 -1.328125 5.367188 -0.84375 6.796875 -0.84375 Z M 6.796875 -0.84375 "/></g></g></g><g fill="#ffffff" fill-opacity="1"><g transform="translate(228.17859, 275.860616)"><g><path d="M 12.90625 -12.78125 C 13.082031 -12.78125 13.222656 -12.722656 13.328125 -12.609375 C 13.429688 -12.503906 13.484375 -12.367188 13.484375 -12.203125 L 13.484375 -0.484375 C 13.484375 -0.316406 13.429688 -0.175781 13.328125 -0.0625 C 13.234375 0.0390625 13.101562 0.09375 12.9375 0.09375 C 12.769531 0.09375 12.644531 0.0390625 12.5625 -0.0625 C 12.476562 -0.164062 12.4375 -0.304688 12.4375 -0.484375 L 12.4375 -10.46875 L 8.171875 -2.234375 C 8.023438 -1.953125 7.828125 -1.8125 7.578125 -1.8125 C 7.328125 -1.8125 7.128906 -1.953125 6.984375 -2.234375 L 2.6875 -10.40625 L 2.6875 -0.484375 C 2.6875 -0.304688 2.644531 -0.164062 2.5625 -0.0625 C 2.476562 0.0390625 2.347656 0.09375 2.171875 0.09375 C 1.992188 0.09375 1.859375 0.0390625 1.765625 -0.0625 C 1.679688 -0.164062 1.640625 -0.304688 1.640625 -0.484375 L 1.640625 -12.203125 C 1.640625 -12.367188 1.6875 -12.503906 1.78125 -12.609375 C 1.882812 -12.722656 2.03125 -12.78125 2.21875 -12.78125 C 2.425781 -12.78125 2.601562 -12.640625 2.75 -12.359375 L 7.59375 -3.078125 L 12.359375 -12.359375 C 12.503906 -12.640625 12.6875 -12.78125 12.90625 -12.78125 Z M 12.90625 -12.78125 "/></g></g></g><g fill="#ffffff" fill-opacity="1"><g transform="translate(247.654671, 275.860616)"><g><path d="M 6.484375 0.140625 C 4.859375 0.140625 3.628906 -0.28125 2.796875 -1.125 C 1.960938 -1.976562 1.546875 -3.234375 1.546875 -4.890625 L 1.546875 -12.203125 C 1.546875 -12.378906 1.597656 -12.519531 1.703125 -12.625 C 1.804688 -12.726562 1.941406 -12.78125 2.109375 -12.78125 C 2.273438 -12.78125 2.40625 -12.726562 2.5 -12.625 C 2.601562 -12.519531 2.65625 -12.378906 2.65625 -12.203125 L 2.65625 -4.765625 C 2.65625 -2.148438 3.929688 -0.84375 6.484375 -0.84375 C 7.742188 -0.84375 8.691406 -1.171875 9.328125 -1.828125 C 9.972656 -2.492188 10.296875 -3.472656 10.296875 -4.765625 L 10.296875 -12.203125 C 10.296875 -12.367188 10.347656 -12.503906 10.453125 -12.609375 C 10.554688 -12.722656 10.691406 -12.78125 10.859375 -12.78125 C 11.023438 -12.78125 11.15625 -12.726562 11.25 -12.625 C 11.34375 -12.519531 11.390625 -12.378906 11.390625 -12.203125 L 11.390625 -4.890625 C 11.390625 -3.234375 10.972656 -1.976562 10.140625 -1.125 C 9.304688 -0.28125 8.085938 0.140625 6.484375 0.140625 Z M 6.484375 0.140625 "/></g></g></g><g fill="#ffffff" fill-opacity="1"><g transform="translate(264.97076, 275.860616)"><g><path d="M 11.0625 -12.78125 C 11.238281 -12.78125 11.367188 -12.726562 11.453125 -12.625 C 11.546875 -12.519531 11.59375 -12.378906 11.59375 -12.203125 L 11.59375 -0.484375 C 11.59375 -0.316406 11.539062 -0.175781 11.4375 -0.0625 C 11.34375 0.0390625 11.210938 0.09375 11.046875 0.09375 C 10.867188 0.09375 10.707031 0 10.5625 -0.1875 L 2.6875 -10.8125 L 2.6875 -0.484375 C 2.6875 -0.316406 2.632812 -0.175781 2.53125 -0.0625 C 2.4375 0.0390625 2.3125 0.09375 2.15625 0.09375 C 1.976562 0.09375 1.847656 0.0390625 1.765625 -0.0625 C 1.679688 -0.164062 1.640625 -0.304688 1.640625 -0.484375 L 1.640625 -12.203125 C 1.640625 -12.367188 1.6875 -12.503906 1.78125 -12.609375 C 1.882812 -12.722656 2.03125 -12.78125 2.21875 -12.78125 C 2.40625 -12.78125 2.5625 -12.691406 2.6875 -12.515625 L 10.546875 -1.890625 L 10.546875 -12.203125 C 10.546875 -12.367188 10.59375 -12.503906 10.6875 -12.609375 C 10.78125 -12.722656 10.90625 -12.78125 11.0625 -12.78125 Z M 11.0625 -12.78125 "/></g></g></g><g fill="#ffffff" fill-opacity="1"><g transform="translate(282.556848, 275.860616)"><g><path d="M 2.203125 0.09375 C 2.023438 0.09375 1.882812 0.0390625 1.78125 -0.0625 C 1.6875 -0.175781 1.640625 -0.316406 1.640625 -0.484375 L 1.640625 -12.203125 C 1.640625 -12.367188 1.6875 -12.503906 1.78125 -12.609375 C 1.882812 -12.722656 2.023438 -12.78125 2.203125 -12.78125 C 2.367188 -12.78125 2.5 -12.722656 2.59375 -12.609375 C 2.695312 -12.503906 2.75 -12.367188 2.75 -12.203125 L 2.75 -0.484375 C 2.75 -0.316406 2.695312 -0.175781 2.59375 -0.0625 C 2.5 0.0390625 2.367188 0.09375 2.203125 0.09375 Z M 2.203125 0.09375 "/></g></g></g><g fill="#ffffff" fill-opacity="1"><g transform="translate(291.304963, 275.860616)"><g><path d="M 5.3125 0.09375 C 5.144531 0.09375 5.007812 0.0390625 4.90625 -0.0625 C 4.8125 -0.175781 4.765625 -0.316406 4.765625 -0.484375 L 4.765625 -11.71875 L 0.609375 -11.71875 C 0.453125 -11.71875 0.328125 -11.757812 0.234375 -11.84375 C 0.148438 -11.925781 0.109375 -12.046875 0.109375 -12.203125 C 0.109375 -12.359375 0.148438 -12.476562 0.234375 -12.5625 C 0.328125 -12.644531 0.453125 -12.6875 0.609375 -12.6875 L 10.015625 -12.6875 C 10.148438 -12.6875 10.265625 -12.640625 10.359375 -12.546875 C 10.460938 -12.460938 10.515625 -12.347656 10.515625 -12.203125 C 10.515625 -12.054688 10.460938 -11.9375 10.359375 -11.84375 C 10.265625 -11.757812 10.148438 -11.71875 10.015625 -11.71875 L 5.875 -11.71875 L 5.875 -0.484375 C 5.875 -0.316406 5.820312 -0.175781 5.71875 -0.0625 C 5.613281 0.0390625 5.476562 0.09375 5.3125 0.09375 Z M 5.3125 0.09375 "/></g></g></g><g fill="#ffffff" fill-opacity="1"><g transform="translate(306.281068, 275.860616)"><g><path d="M 9.59375 -12.546875 C 9.695312 -12.691406 9.828125 -12.765625 9.984375 -12.765625 C 10.117188 -12.765625 10.234375 -12.710938 10.328125 -12.609375 C 10.421875 -12.515625 10.46875 -12.398438 10.46875 -12.265625 C 10.46875 -12.128906 10.425781 -12.015625 10.34375 -11.921875 L 5.84375 -6.125 L 5.84375 -0.484375 C 5.84375 -0.316406 5.796875 -0.175781 5.703125 -0.0625 C 5.609375 0.0390625 5.476562 0.09375 5.3125 0.09375 C 5.144531 0.09375 5.007812 0.0390625 4.90625 -0.0625 C 4.800781 -0.175781 4.75 -0.316406 4.75 -0.484375 L 4.75 -6.15625 L 0.265625 -11.921875 C 0.179688 -12.015625 0.140625 -12.128906 0.140625 -12.265625 C 0.140625 -12.390625 0.1875 -12.503906 0.28125 -12.609375 C 0.382812 -12.710938 0.5 -12.765625 0.625 -12.765625 C 0.78125 -12.765625 0.914062 -12.691406 1.03125 -12.546875 L 5.3125 -7 Z M 9.59375 -12.546875 "/></g></g></g></svg>